<?xml version="1.0" standalone="no"?>
<!DOCTYPE svg PUBLIC "-//W3C//DTD SVG 20010904//EN"
 "http://www.w3.org/TR/2001/REC-SVG-20010904/DTD/svg10.dtd">
<svg version="1.0" xmlns="http://www.w3.org/2000/svg"
 width="4500.000000pt" height="4500.000000pt" viewBox="0 0 4500.000000 4500.000000"
 preserveAspectRatio="xMidYMid meet">

<g transform="translate(0.000000,4500.000000) scale(0.100000,-0.100000)"
fill="#000000" stroke="none">
<path d="M0 22500 l0 -22500 22500 0 22500 0 0 22500 0 22500 -22500 0 -22500
0 0 -22500z m22700 14710 c481 -26 897 -70 1340 -141 2203 -353 4281 -1319
5991 -2786 268 -230 411 -363 699 -652 349 -349 613 -644 890 -989 71 -89 117
-139 124 -134 6 4 97 64 201 133 840 557 1492 863 2095 983 200 40 304 49 514
43 255 -7 390 -37 585 -128 193 -90 389 -257 503 -429 51 -77 1218 -2434 1288
-2600 67 -161 95 -338 87 -545 -6 -162 -24 -266 -74 -420 -66 -206 -155 -382
-308 -615 -393 -597 -1224 -1436 -2206 -2226 -120 -97 -219 -177 -219 -178 0
-1 9 -80 20 -176 24 -218 47 -513 60 -779 14 -277 14 -5866 0 -6142 -42 -850
-154 -1613 -351 -2402 -444 -1776 -1295 -3448 -2470 -4853 -314 -376 -798
-883 -1134 -1189 -2027 -1848 -4548 -2950 -7250 -3169 -380 -31 -630 -38
-1142 -33 -512 5 -706 15 -1120 57 -1166 120 -2351 421 -3421 870 -1283 538
-2433 1266 -3480 2203 -195 174 -725 703 -899 897 -1076 1201 -1896 2566
-2433 4055 -239 662 -425 1376 -545 2086 l-43 256 -87 104 c-120 143 -285 394
-377 574 -155 304 -1238 2515 -1279 2611 -65 153 -144 402 -183 579 -76 342
-101 624 -93 1015 6 283 21 451 62 712 51 327 173 1059 177 1063 2 2 369 -167
816 -375 447 -209 817 -380 822 -380 6 0 10 157 10 423 1 910 25 1400 101
2007 232 1872 896 3650 1950 5230 477 715 924 1258 1548 1880 320 320 521 505
816 750 1547 1289 3414 2187 5360 2579 642 129 1193 197 1895 234 149 8 998 6
1160 -3z"/>
<path d="M21710 36793 c-1373 -49 -2706 -325 -3945 -818 -1183 -470 -2242
-1100 -3219 -1914 -530 -441 -1066 -977 -1507 -1507 -605 -726 -1113 -1506
-1524 -2339 -735 -1492 -1133 -3058 -1205 -4745 -12 -285 -13 -1560 -2 -1560
5 0 12 -125 15 -277 16 -661 75 -996 228 -1294 141 -273 365 -497 638 -638
279 -143 512 -187 1046 -198 495 -10 982 35 1613 149 l232 42 0 1730 c0 1711
4 1966 35 2316 166 1857 984 3599 2315 4930 1641 1641 3886 2484 6200 2329
1796 -120 3487 -841 4838 -2062 291 -263 661 -660 904 -969 l100 -127 117 107
c802 736 1740 1519 2496 2085 154 115 284 213 288 217 5 4 -53 83 -129 176
-1338 1647 -3093 2908 -5059 3637 -1187 439 -2363 674 -3650 727 -215 9 -624
11 -825 3z m240 -765 c0 -37 16 -288 25 -389 l6 -66 -216 -13 -215 -13 1 -41
c1 -93 25 -395 31 -401 3 -4 88 -1 187 6 100 6 184 10 186 7 6 -5 37 -449 33
-453 -2 -2 -86 -8 -188 -15 -102 -6 -187 -13 -189 -16 -2 -2 11 -227 28 -500
18 -273 31 -497 29 -499 -7 -5 -614 -41 -619 -36 -6 6 -162 2382 -156 2387 2
2 869 63 1035 73 18 1 22 -4 22 -31z m1825 -113 c465 -70 546 -83 551 -87 1
-2 -14 -110 -34 -241 -34 -227 -37 -238 -56 -234 -67 16 -397 59 -403 54 -5
-6 -74 -429 -70 -434 1 0 86 -14 190 -29 109 -16 187 -32 187 -38 -1 -27 -67
-436 -72 -441 -3 -3 -88 7 -189 23 -101 16 -185 26 -186 23 -2 -3 -36 -226
-77 -494 -41 -269 -76 -490 -78 -492 -5 -4 -606 90 -612 96 -5 4 314 2134 349
2337 6 32 8 34 38 28 18 -3 226 -35 462 -71z m-4596 -310 c95 -23 196 -80 272
-155 109 -107 158 -228 390 -961 169 -536 194 -668 159 -819 -58 -251 -304
-450 -632 -511 -89 -16 -261 -13 -332 6 -130 34 -275 143 -344 257 -47 79
-125 293 -262 723 -200 630 -231 761 -211 894 22 140 71 239 167 335 185 185
544 289 793 231z m6938 -322 c263 -102 479 -187 481 -188 2 -2 -166 -444 -173
-452 -1 -2 -87 31 -191 72 -104 41 -192 75 -195 75 -3 0 -10 -15 -16 -32 -6
-18 -41 -109 -77 -201 -36 -92 -66 -171 -66 -176 0 -4 79 -38 175 -76 96 -37
175 -73 175 -79 0 -22 -157 -410 -168 -414 -5 -1 -87 27 -181 64 -94 37 -173
65 -175 63 -14 -14 -186 -473 -179 -479 4 -4 98 -42 208 -85 110 -42 201 -78
203 -80 2 -2 -97 -261 -165 -432 -3 -7 -11 -13 -18 -13 -10 0 -893 341 -982
379 -21 10 -18 19 116 358 75 191 272 693 436 1115 165 422 303 768 307 768 4
0 222 -84 485 -187z m-9500 -823 c199 -27 321 -137 569 -515 80 -123 94 -149
83 -160 -19 -17 -511 -336 -514 -333 -1 2 -62 95 -135 208 -153 236 -212 316
-240 325 -31 10 -73 -3 -103 -31 -45 -41 -45 -67 0 -153 61 -120 743 -1160
795 -1215 44 -45 50 -48 84 -43 21 4 50 19 66 34 56 53 38 99 -159 402 -52 79
-91 147 -86 152 4 4 123 82 263 173 l255 166 72 -113 c88 -135 195 -342 217
-416 65 -221 -51 -497 -283 -675 -144 -111 -328 -191 -469 -205 -188 -18 -315
28 -447 162 -111 113 -163 186 -440 611 -283 435 -340 527 -390 626 -166 329
-4 692 403 903 113 58 191 85 282 97 82 11 92 11 177 0z m11706 -349 c213
-144 387 -266 387 -271 0 -6 -245 -375 -264 -397 -1 -1 -79 50 -174 114 -94
64 -173 115 -175 112 -18 -22 -237 -351 -239 -358 -2 -5 67 -57 152 -116 85
-58 154 -111 152 -117 -5 -19 -245 -368 -253 -368 -4 0 -77 47 -162 105 -117
79 -157 102 -165 92 -6 -6 -71 -102 -146 -212 -105 -155 -133 -202 -123 -211
6 -6 90 -64 185 -129 97 -65 171 -122 169 -129 -10 -26 -259 -386 -267 -386
-4 0 -102 64 -217 142 -114 78 -300 204 -412 279 -112 76 -217 149 -234 162
l-31 23 329 485 c415 611 507 746 789 1161 l228 337 42 -28 c22 -15 215 -146
429 -290z m-14777 -2672 c183 -56 430 -226 487 -334 27 -50 29 -164 4 -242 -9
-29 -15 -53 -14 -53 1 0 29 20 62 45 140 105 273 112 445 25 104 -53 395 -255
471 -327 106 -101 134 -158 134 -270 0 -81 -1 -84 -65 -210 -73 -144 -569
-905 -585 -899 -12 4 -1976 1304 -1987 1314 -8 8 361 570 447 682 72 94 161
185 217 221 108 70 255 88 384 48z m-1174 -2498 c206 -53 944 -294 1164 -380
240 -94 351 -200 420 -401 15 -45 19 -82 18 -200 -1 -127 -4 -156 -28 -234
-94 -312 -269 -501 -509 -550 -165 -34 -226 -21 -862 186 -678 220 -775 260
-889 368 -107 102 -157 203 -176 356 -31 247 82 562 263 730 160 150 349 189
599 125z m-400 -2756 c32 -10 76 -33 99 -53 45 -38 95 -131 105 -194 6 -35 24
-54 24 -26 0 32 76 161 119 201 71 66 139 89 291 94 151 6 448 -12 545 -32
149 -32 243 -102 287 -214 19 -49 22 -80 25 -261 4 -185 -28 -964 -39 -976 -5
-4 -2339 105 -2373 111 -20 4 -20 5 -3 352 24 506 41 636 100 761 56 120 180
214 323 246 99 22 416 16 497 -9z"/>
<path d="M18850 35177 c-41 -21 -53 -58 -40 -125 15 -69 410 -1317 440 -1387
12 -28 29 -58 37 -67 23 -26 76 -23 110 6 51 44 54 32 -207 851 -203 639 -212
665 -247 705 -27 32 -53 37 -93 17z"/>
<path d="M13274 30890 c-19 -8 -84 -85 -84 -100 0 -4 97 -72 216 -150 175
-117 217 -141 225 -129 6 7 22 38 36 67 21 45 23 57 13 81 -13 32 -64 76 -171
149 -123 84 -181 104 -235 82z"/>
<path d="M14041 30397 c-25 -12 -107 -104 -100 -111 16 -15 541 -356 548 -356
16 0 55 94 55 132 1 52 -30 81 -215 203 -213 141 -244 155 -288 132z"/>
<path d="M11987 28383 c-19 -5 -47 -52 -47 -80 0 -30 29 -62 78 -87 45 -23
1144 -388 1326 -440 48 -14 103 -26 122 -26 57 0 95 64 71 117 -15 34 -109 75
-331 148 -105 34 -398 130 -651 213 -436 142 -526 167 -568 155z"/>
<path d="M11550 25613 c-41 -21 -56 -49 -65 -119 l-7 -51 143 -7 c79 -3 199
-9 267 -13 l122 -6 0 54 c0 31 -7 69 -18 89 -23 46 -73 59 -262 66 -128 5
-149 3 -180 -13z"/>
<path d="M12460 25577 c-40 -14 -56 -40 -68 -119 l-9 -56 86 -6 c199 -14 572
-28 578 -22 11 11 -14 136 -31 155 -26 29 -88 41 -254 51 -203 12 -259 11
-302 -3z"/>
<path d="M34365 33243 c-245 -22 -616 -124 -925 -254 -155 -65 -500 -239 -680
-344 -1327 -769 -3146 -2257 -5186 -4241 l-311 -303 -174 -25 c-1053 -151
-2449 -160 -4019 -25 -1436 123 -3059 361 -4524 665 -223 47 -270 54 -281 42
-17 -18 -567 -990 -568 -1003 0 -6 298 -568 663 -1249 699 -1304 692 -1291
793 -1350 215 -126 968 -282 2441 -506 252 -38 460 -71 463 -73 4 -5 -591
-338 -1027 -575 -1809 -981 -3531 -1748 -5030 -2240 -1088 -357 -2060 -574
-2950 -657 -582 -54 -1225 -37 -1579 41 -577 129 -1064 511 -1322 1040 -158
323 -232 727 -252 1364 l-2 74 -100 44 c-55 25 -356 164 -668 309 -313 146
-571 262 -575 259 -9 -9 -99 -573 -117 -728 -75 -676 -5 -1291 207 -1818 34
-84 1247 -2559 1316 -2685 274 -499 701 -902 1252 -1179 1140 -575 2762 -623
4800 -142 213 51 726 183 741 192 3 2 0 27 -8 56 -22 80 -13 264 17 348 51
145 124 263 279 448 174 208 286 300 437 359 57 21 90 27 191 31 109 4 130 2
213 -22 303 -87 590 -291 738 -525 19 -31 36 -57 37 -58 2 -4 448 172 678 266
421 173 948 405 1367 600 95 45 177 78 180 74 4 -5 17 -81 29 -171 15 -112 30
-186 50 -240 16 -42 257 -540 536 -1107 279 -566 550 -1118 602 -1225 95 -192
97 -196 187 -285 98 -97 183 -148 296 -176 76 -19 240 -17 320 4 159 41 316
153 409 291 130 192 562 755 830 1081 653 794 1391 1565 1964 2051 l49 41 -55
72 c-104 138 -147 256 -147 402 0 222 106 428 377 734 103 116 192 191 283
239 117 61 161 71 305 71 124 0 135 -2 240 -38 208 -72 390 -185 539 -333 l82
-82 49 26 c87 44 334 152 510 222 468 187 929 315 1320 367 181 24 534 24 665
0 155 -29 128 6 501 -626 179 -303 341 -567 360 -587 73 -75 118 -88 514 -144
387 -55 411 -56 502 -15 109 49 178 142 204 275 20 103 18 479 -4 620 -23 147
-76 349 -122 470 -62 164 -1300 2666 -1375 2780 -106 162 -243 302 -493 503
-140 114 -164 138 -150 145 10 5 128 55 263 110 1325 542 2393 1141 3341 1873
613 473 1108 908 1599 1405 362 367 554 586 748 856 343 478 455 879 345 1233
-8 28 -292 613 -630 1301 -660 1343 -655 1335 -786 1445 -182 153 -472 229
-772 202z m342 -366 c383 -108 484 -481 252 -933 -280 -548 -1139 -1440 -2219
-2305 -545 -436 -1015 -759 -1584 -1088 -987 -571 -2256 -1116 -3351 -1441
l-200 -60 -258 -262 c-1759 -1792 -3374 -3727 -4329 -5188 -133 -204 -140
-217 -97 -170 780 844 1420 1429 2079 1900 301 216 569 381 910 559 942 494
1787 772 2572 847 211 20 642 15 806 -10 357 -54 643 -157 887 -321 393 -263
624 -634 712 -1140 18 -106 26 -535 10 -551 -4 -5 -150 12 -323 36 l-315 44 7
51 c4 27 6 102 6 165 -4 432 -205 757 -587 945 -269 132 -539 182 -919 172
-283 -7 -518 -43 -857 -127 -715 -179 -1648 -586 -2255 -985 -822 -539 -1723
-1375 -2663 -2470 -392 -457 -791 -961 -1056 -1335 -114 -161 -147 -196 -220
-231 -51 -25 -72 -29 -143 -29 -99 0 -155 24 -219 93 -85 92 -104 175 -79 342
122 831 781 2055 1941 3610 852 1141 2035 2523 3270 3818 l199 210 -44 -6
c-67 -10 -423 -35 -690 -49 -301 -15 -1286 -15 -1630 1 -1287 58 -2326 164
-3850 392 -1297 194 -2139 362 -2298 459 l-33 20 25 43 c13 23 81 143 151 267
70 124 129 226 130 228 2 2 173 -31 381 -72 1806 -358 3586 -584 5344 -678
323 -18 1626 -17 1900 0 459 29 765 60 1135 114 l220 32 355 346 c2416 2356
4528 4014 5805 4555 216 92 503 177 705 209 114 18 339 14 417 -7z m-11769
-8572 c88 -148 158 -273 156 -277 -9 -15 -732 -431 -1189 -685 -3423 -1900
-6461 -3019 -8790 -3237 -437 -41 -1043 -46 -1395 -11 -595 58 -1059 180
-1485 390 -513 253 -911 626 -1158 1085 -244 453 -357 1039 -318 1645 14 207
48 496 61 509 8 8 605 -261 633 -284 4 -3 -5 -67 -20 -141 -24 -119 -27 -156
-27 -339 0 -113 6 -250 13 -305 71 -572 295 -1004 686 -1320 704 -570 1951
-747 3550 -504 2051 312 4597 1275 7460 2822 478 258 1175 652 1540 870 61 36
113 62 117 59 4 -4 78 -128 166 -277z"/>
<path d="M34286 32234 c-104 -23 -289 -81 -401 -126 -829 -335 -2224 -1332
-3810 -2722 -457 -401 -1429 -1293 -1420 -1304 4 -5 438 171 670 270 908 390
1776 866 2420 1326 411 294 942 726 1386 1127 221 201 700 681 847 849 201
230 344 418 412 539 l32 57 -34 -1 c-18 0 -64 -7 -102 -15z"/>
<path d="M21710 32584 c-1614 -92 -3118 -664 -4355 -1658 -408 -328 -851 -769
-1167 -1164 -740 -921 -1238 -1953 -1497 -3099 -46 -203 -102 -524 -125 -719
-51 -425 -49 -333 -53 -2307 -4 -1773 -3 -1848 14 -1843 10 3 83 21 163 41
1686 418 3719 1252 5922 2428 l158 83 -223 38 c-920 155 -1394 274 -1621 407
-97 57 -238 202 -292 299 -139 251 -1424 2660 -1424 2669 0 11 825 1470 840
1485 5 5 111 -12 262 -43 774 -160 997 -203 1468 -285 1619 -283 3055 -448
4510 -518 340 -16 1391 -16 1675 0 316 19 659 48 895 78 l205 26 225 221 c189
187 635 612 814 779 l50 46 -18 27 c-31 47 -250 316 -346 425 -765 868 -1687
1537 -2734 1985 -739 315 -1497 504 -2336 581 -166 15 -846 27 -1010 18z
m1096 -1049 c192 -20 350 -37 351 -39 4 -4 -23 -245 -28 -249 -2 -2 -44 0 -92
5 -49 5 -91 8 -93 5 -2 -2 -27 -226 -55 -498 -27 -271 -51 -494 -52 -495 -6
-4 -316 32 -322 37 -5 5 69 780 91 951 l6 46 -96 7 c-76 6 -96 11 -96 23 0 47
25 242 31 242 4 0 164 -16 355 -35z m-1237 6 c71 -22 124 -59 146 -101 19 -37
43 -140 47 -205 l3 -50 -152 -15 c-103 -11 -153 -12 -153 -5 -2 48 -21 149
-30 160 -16 20 -54 19 -71 -1 -18 -21 -15 -114 5 -152 20 -39 47 -57 175 -121
254 -127 299 -195 308 -461 4 -127 3 -137 -19 -175 -31 -53 -109 -110 -188
-137 -84 -29 -259 -32 -330 -4 -136 52 -182 132 -205 357 l-6 66 145 13 c80 7
149 13 153 14 5 0 13 -46 20 -104 15 -131 23 -150 62 -150 38 0 61 32 61 85 0
58 -26 137 -52 162 -13 12 -88 56 -168 100 -230 124 -269 179 -278 396 -4 94
-1 126 12 161 30 79 115 144 221 170 89 21 221 20 294 -3z m2512 -251 c116
-38 242 -86 280 -106 107 -57 159 -130 159 -227 0 -72 -228 -784 -279 -873
-51 -87 -147 -115 -277 -80 -52 14 -476 148 -483 152 -4 3 382 1204 386 1204
2 0 98 -31 214 -70z m-3742 -62 c18 -62 34 -117 35 -122 0 -5 -44 -23 -99 -41
-55 -17 -99 -36 -99 -41 1 -5 16 -55 33 -110 l31 -102 95 31 c53 16 97 28 99
26 9 -11 73 -230 67 -233 -3 -2 -47 -16 -97 -31 l-91 -27 39 -126 c21 -69 40
-127 41 -128 1 -1 51 13 112 32 60 18 112 30 116 26 9 -10 69 -206 69 -226 0
-8 -14 -19 -32 -24 -18 -5 -138 -42 -266 -82 -132 -41 -237 -69 -241 -64 -16
18 -373 1186 -365 1194 10 9 481 158 504 159 12 1 25 -30 49 -111z"/>
<path d="M23992 30663 c-67 -208 -122 -384 -122 -390 0 -8 15 -13 39 -13 38 0
41 2 64 53 14 28 29 68 35 87 5 19 49 156 96 304 52 159 85 278 82 291 -5 19
-42 45 -65 45 -4 0 -62 -170 -129 -377z"/>
<path d="M33720 26164 c-108 -79 -402 -277 -560 -376 -591 -372 -1254 -723
-1942 -1029 -93 -41 -168 -78 -168 -82 0 -5 23 -34 51 -66 102 -116 181 -240
300 -471 126 -245 896 -1797 1051 -2120 49 -102 108 -221 130 -265 126 -252
214 -557 249 -870 15 -140 15 -461 0 -588 -17 -138 -34 -198 -86 -302 -131
-265 -386 -425 -680 -425 -110 0 -755 87 -855 116 -141 40 -305 148 -387 255
-22 30 -170 274 -329 542 -299 509 -298 507 -365 507 l-29 0 0 -477 c-1 -757
-18 -1150 -71 -1553 -152 -1176 -558 -2287 -1203 -3293 -432 -674 -995 -1310
-1623 -1834 -739 -617 -1620 -1113 -2527 -1422 -1149 -393 -2389 -518 -3601
-365 -2793 353 -5219 2181 -6342 4779 l-73 170 -53 -1 c-28 -1 -122 -9 -207
-18 -335 -34 -473 -40 -905 -41 -347 0 -480 4 -630 18 -724 69 -1280 213
-1800 467 -161 79 -373 202 -481 279 -31 22 -59 39 -62 37 -6 -7 51 -278 109
-516 406 -1675 1179 -3247 2264 -4600 453 -564 1020 -1147 1570 -1614 973
-825 2066 -1485 3231 -1954 2684 -1080 5668 -1134 8389 -152 2666 962 4915
2876 6308 5370 421 755 781 1618 1021 2452 248 861 374 1601 448 2623 8 112
12 985 15 2910 4 2683 1 3191 -27 3555 -26 339 -34 410 -44 410 -6 -1 -45 -26
-86 -56z m-3039 -8354 l219 -71 607 -439 c334 -242 611 -436 614 -432 4 4 37
100 73 215 37 114 72 207 78 207 30 0 448 -142 448 -152 0 -16 -341 -1071
-350 -1081 -3 -4 -80 17 -171 46 l-164 53 -668 468 c-368 257 -670 466 -672
464 -2 -2 -31 -90 -65 -195 -33 -106 -64 -194 -68 -196 -4 -2 -109 30 -234 71
l-226 74 19 56 c10 32 84 260 164 507 171 530 152 475 166 475 6 0 110 -32
230 -70z m-520 -1462 l210 -113 521 -538 c286 -296 524 -535 529 -530 5 5 54
94 110 198 56 105 102 191 103 192 2 3 415 -215 425 -223 6 -5 -533 -1014
-542 -1014 -5 0 -78 37 -163 82 l-154 83 -566 572 c-311 315 -569 573 -574
573 -4 0 -49 -78 -100 -172 -50 -95 -96 -177 -100 -182 -9 -9 -433 212 -428
224 8 21 512 960 515 960 2 0 98 -51 214 -112z m-15751 -524 c194 -55 383
-235 500 -479 55 -112 80 -217 80 -331 0 -274 -92 -389 -537 -673 l-143 -90
-33 52 c-109 171 -288 458 -293 470 -4 10 59 54 217 153 244 153 319 212 319
250 0 57 -51 114 -102 114 -43 0 -145 -59 -633 -364 -578 -363 -641 -404 -689
-449 -36 -34 -38 -40 -33 -79 8 -59 56 -103 101 -94 49 10 124 50 301 161 91
57 169 106 174 109 8 5 346 -522 339 -529 -18 -17 -227 -141 -313 -186 -150
-78 -244 -109 -337 -109 -269 0 -515 189 -668 513 -61 129 -80 208 -80 329 0
168 42 260 178 390 105 101 218 179 627 435 667 418 713 440 900 427 39 -3 95
-12 125 -20z m15626 -1584 c566 -341 1029 -625 1029 -630 0 -9 -380 -476 -395
-485 -5 -3 -85 49 -179 115 -93 66 -174 120 -178 119 -4 0 -37 -36 -72 -80
l-64 -80 152 -153 153 -153 -201 -244 c-111 -134 -205 -245 -210 -247 -6 -2
-992 1052 -1594 1704 l-57 62 285 346 c158 190 289 346 294 346 4 0 470 -279
1037 -620z m-14381 -40 c234 -60 483 -286 581 -529 71 -175 50 -380 -56 -539
-21 -31 -115 -138 -208 -237 -184 -197 -698 -698 -808 -789 -272 -225 -609
-190 -895 94 -290 286 -336 611 -126 890 58 77 885 903 981 978 175 140 340
181 531 132z m12817 -1197 c844 -1002 808 -954 829 -1073 21 -118 -12 -208
-119 -322 -53 -58 -368 -328 -382 -328 -10 0 -270 305 -270 317 1 4 19 20 41
36 83 57 100 132 49 208 -16 24 -289 352 -606 728 -420 499 -574 688 -568 698
11 17 456 393 465 393 4 0 256 -296 561 -657z m-11144 -163 c246 -166 448
-305 450 -309 2 -5 -58 -98 -132 -207 l-134 -199 -586 -460 c-322 -253 -585
-462 -586 -465 0 -3 83 -61 185 -129 102 -69 185 -129 185 -133 0 -5 -59 -96
-130 -204 -87 -129 -135 -192 -143 -188 -7 4 -222 149 -479 321 l-468 314 98
146 97 146 632 514 c348 283 633 516 633 517 0 2 -76 54 -170 117 -93 63 -169
118 -170 122 0 10 260 397 266 397 3 0 206 -135 452 -300z m8894 -680 c54
-118 95 -217 91 -221 -5 -4 -90 -44 -189 -89 l-182 -82 70 -151 c39 -84 81
-175 93 -204 l23 -52 177 81 c97 44 178 79 179 77 18 -21 185 -414 179 -419
-4 -5 -82 -42 -173 -83 -96 -44 -164 -80 -162 -87 3 -13 202 -453 207 -458 1
-2 93 38 203 87 109 50 203 91 208 91 7 0 182 -373 202 -429 4 -12 -978 -455
-987 -445 -9 10 -978 2142 -983 2163 -2 9 149 83 462 226 256 117 469 212 475
211 5 -1 54 -99 107 -216z m-7807 55 c88 -38 162 -70 164 -71 8 -7 -151 -679
-193 -819 -8 -27 -14 -50 -12 -52 2 -2 20 25 41 59 50 83 314 478 396 594 l64
91 263 -111 c144 -61 262 -115 262 -119 0 -4 -227 -282 -506 -617 l-505 -610
-169 -397 c-94 -218 -171 -398 -173 -399 -2 -2 -122 48 -268 110 -178 77 -263
118 -261 128 2 7 78 186 168 398 l165 385 99 790 c55 435 100 791 100 792 0 2
117 -46 365 -152z m6314 -1009 l-52 -554 337 -597 c186 -328 336 -598 334
-599 -2 -2 -138 -34 -303 -71 -165 -37 -305 -70 -311 -72 -7 -3 -108 185 -240
446 -126 248 -229 449 -230 448 -1 -1 46 -213 106 -472 59 -258 105 -473 101
-476 -8 -9 -600 -144 -605 -138 -5 5 -536 2332 -533 2335 8 7 608 140 611 135
2 -3 48 -202 102 -441 55 -239 100 -426 102 -415 1 11 15 222 32 469 16 246
31 450 33 452 2 2 129 32 283 67 224 52 280 61 282 50 2 -8 -20 -263 -49 -567z
m-3704 253 c154 -17 280 -31 281 -32 1 -1 -45 -420 -102 -932 -57 -511 -104
-939 -104 -951 0 -19 10 -22 181 -39 118 -12 183 -23 186 -31 4 -12 -42 -463
-49 -469 -4 -4 -991 104 -996 109 -4 4 257 2356 263 2373 2 8 15 11 32 8 15
-3 154 -19 308 -36z m1812 -1238 c29 -657 51 -1196 49 -1198 -3 -3 -620 -33
-622 -30 -5 5 -106 2388 -102 2392 5 5 555 34 598 31 l25 -1 52 -1194z"/>
<path d="M29209 14124 c58 -67 445 -474 539 -568 l90 -88 63 76 c35 42 62 79
59 83 -3 4 -131 91 -285 195 -154 104 -329 223 -390 265 -99 69 -106 73 -76
37z"/>
<path d="M15640 13693 c-51 -24 -1106 -1080 -1114 -1116 -15 -65 54 -122 117
-96 18 8 234 211 516 489 464 456 581 577 603 626 16 35 -8 83 -48 100 -40 17
-32 17 -74 -3z"/>
<path d="M29555 20950 c-420 -76 -910 -238 -1429 -473 l-160 -72 -1 -135 c-1
-166 -15 -223 -95 -385 -123 -247 -312 -443 -536 -554 -126 -63 -226 -85 -349
-78 -149 8 -268 51 -426 152 l-65 42 -155 -134 c-576 -503 -1236 -1195 -1840
-1928 -283 -343 -644 -810 -818 -1056 -198 -282 -424 -438 -723 -500 -137 -28
-379 -23 -503 10 -229 61 -454 221 -601 426 -38 54 -771 1527 -1189 2392 l-93
192 -134 -60 c-383 -174 -1126 -484 -1564 -653 l-121 -46 -15 -78 c-79 -396
-452 -790 -822 -869 -135 -28 -299 -2 -451 74 -82 40 -296 180 -378 247 l-57
47 -237 -67 c-475 -132 -1044 -263 -1480 -340 -117 -21 -213 -41 -213 -45 0
-14 129 -297 200 -439 751 -1502 1982 -2722 3482 -3450 766 -371 1590 -613
2423 -709 337 -40 463 -46 895 -46 455 1 603 10 990 61 2016 265 3855 1350
5080 2996 496 665 872 1391 1129 2182 184 563 290 1103 352 1781 13 146 25
1535 13 1534 -5 -1 -54 -9 -109 -19z m-5337 -6054 c27 -14 64 -42 81 -63 32
-38 97 -160 90 -167 -8 -7 -291 -106 -303 -106 -7 0 -24 28 -37 62 -29 75 -60
93 -104 64 -35 -23 -32 -49 26 -214 l43 -122 13 32 c43 101 185 159 304 124
104 -30 146 -87 224 -306 78 -217 90 -294 60 -380 -49 -139 -246 -251 -445
-253 -103 -1 -157 20 -223 85 -54 54 -77 102 -161 337 -177 488 -193 556 -162
664 58 198 403 340 594 243z m-3928 -11 c132 -35 244 -117 291 -212 19 -40 24
-64 24 -138 0 -83 -3 -96 -36 -165 -20 -41 -56 -99 -80 -129 -48 -58 -206
-194 -392 -336 -74 -56 -112 -92 -104 -96 6 -4 79 -30 162 -58 82 -29 151 -54
153 -56 5 -5 -58 -197 -67 -208 -7 -7 -91 21 -573 185 -65 22 -118 44 -118 48
0 5 14 47 31 93 l30 85 172 143 c441 368 527 460 527 563 0 36 -17 61 -50 71
-45 14 -77 -29 -120 -160 -12 -38 -24 -71 -25 -73 -2 -2 -276 88 -283 94 -6 4
45 139 72 192 31 60 112 135 169 155 54 20 148 21 217 2z m2566 -276 c119 -21
221 -108 258 -221 22 -68 20 -188 -3 -279 -21 -81 -84 -225 -197 -451 -41 -81
-74 -149 -74 -151 0 -1 66 5 148 15 209 25 198 26 206 -22 3 -22 9 -73 12
-113 l7 -73 -359 -41 c-198 -22 -360 -40 -361 -39 -1 1 -7 43 -13 94 l-12 93
110 242 c193 425 232 529 232 618 0 99 -49 152 -106 114 -33 -22 -38 -53 -26
-163 6 -53 10 -98 8 -100 -9 -8 -286 -35 -293 -28 -4 4 -9 65 -11 136 -4 120
-3 132 21 182 68 150 246 223 453 187z m-1245 -19 c74 -23 157 -76 193 -123
42 -54 56 -110 56 -217 0 -96 -50 -609 -71 -725 -38 -216 -198 -315 -446 -276
-196 31 -306 138 -320 311 -5 62 43 567 68 725 29 179 87 263 212 306 74 26
225 25 308 -1z"/>
<path d="M24084 14234 c-17 -25 -16 -30 32 -171 64 -190 102 -267 132 -271 33
-5 62 25 62 63 0 39 -114 362 -137 387 -24 27 -69 23 -89 -8z"/>
<path d="M21453 14388 c-6 -7 -13 -26 -17 -42 -12 -48 -86 -756 -86 -818 0
-53 2 -60 26 -70 34 -16 56 -2 71 48 12 38 93 766 93 835 0 19 -5 40 -12 47
-16 16 -63 15 -75 0z"/>
<path d="M26875 20811 c-80 -20 -168 -95 -308 -264 -214 -257 -239 -380 -106
-531 75 -85 358 -282 461 -321 160 -60 392 80 539 325 116 194 103 351 -41
513 -143 159 -430 306 -545 278z"/>
<path d="M17639 18691 c-75 -23 -138 -78 -261 -225 -236 -281 -270 -392 -163
-534 51 -67 127 -131 285 -238 156 -105 208 -128 290 -129 56 0 77 6 142 37
136 68 266 208 345 374 35 72 38 86 38 164 0 77 -3 92 -34 154 -76 155 -273
310 -485 381 -76 26 -112 29 -157 16z"/>
</g>
</svg>
